<svg width="26" height="26" viewBox="0 0 26 26" fill="none" xmlns="http://www.w3.org/2000/svg">
<path d="M13 0C5.82045 0 0 5.82045 0 13C0 20.1796 5.82045 26 13 26C20.1796 26 26 20.1796 26 13C26 5.82045 20.1796 0 13 0ZM13 23.8333C7.01705 23.8333 2.16668 18.9829 2.16668 13C2.16668 7.01705 7.01705 2.16668 13 2.16668C18.9829 2.16668 23.8333 7.01705 23.8333 13C23.8333 18.9829 18.9829 23.8333 13 23.8333Z" fill="#0052FF"/>
<path d="M15.9326 6.81754C15.5095 6.39448 14.8235 6.39448 14.4005 6.81754L8.9838 12.2342C8.56074 12.6573 8.56074 13.3432 8.9838 13.7663L14.4005 19.183C14.8235 19.606 15.5095 19.606 15.9326 19.183C16.3556 18.7599 16.3556 18.074 15.9326 17.6509L11.2819 13.0003L15.9326 8.34961C16.3556 7.92655 16.3556 7.24065 15.9326 6.81754Z" fill="#0052FF"/>
</svg>
