<svg width="28" height="29" viewBox="0 0 28 29" fill="none" xmlns="http://www.w3.org/2000/svg">
<path d="M7.03191 0C6.4369 0 5.95008 0.486824 5.95008 1.08183V2.70458H4.22455C1.89321 2.70458 0 4.59779 0 6.92913V24.4494C0 26.7753 1.89321 28.674 4.22455 28.674H22.8267C25.1526 28.674 27.0512 26.7807 27.0512 24.4494V6.92913C27.0512 4.6032 25.158 2.70458 22.8267 2.70458H21.0957V1.08183C21.0957 0.486824 20.6089 0 20.0139 0C19.4189 0 18.9321 0.486824 18.9321 1.08183V2.70458H8.11374V1.08183C8.11374 0.486824 7.62691 0 7.03191 0ZM18.9321 4.86824V6.49099C18.9321 7.086 19.4189 7.57282 20.0139 7.57282C20.6089 7.57282 21.0957 7.086 21.0957 6.49099V4.86824H22.8212C23.9572 4.86824 24.8821 5.79321 24.8821 6.92913V24.4494C24.8821 25.5853 23.9572 26.5103 22.8212 26.5103H4.22455C3.08863 26.5103 2.16366 25.5853 2.16366 24.4494V6.92913C2.16366 5.79321 3.08863 4.86824 4.22455 4.86824H5.95008V6.49099C5.95008 7.086 6.4369 7.57282 7.03191 7.57282C7.62691 7.57282 8.11374 7.086 8.11374 6.49099V4.86824H18.9321Z" fill="#6C3DFF"/>
<path d="M7.57343 15.1454C8.46965 15.1454 9.19618 14.4189 9.19618 13.5227C9.19618 12.6264 8.46965 11.8999 7.57343 11.8999C6.67721 11.8999 5.95068 12.6264 5.95068 13.5227C5.95068 14.4189 6.67721 15.1454 7.57343 15.1454Z" fill="#6C3DFF"/>
<path d="M13.5227 15.1454C14.4189 15.1454 15.1454 14.4189 15.1454 13.5227C15.1454 12.6264 14.4189 11.8999 13.5227 11.8999C12.6264 11.8999 11.8999 12.6264 11.8999 13.5227C11.8999 14.4189 12.6264 15.1454 13.5227 15.1454Z" fill="#6C3DFF"/>
<path d="M19.4728 15.1454C20.3691 15.1454 21.0956 14.4189 21.0956 13.5227C21.0956 12.6264 20.3691 11.8999 19.4728 11.8999C18.5766 11.8999 17.8501 12.6264 17.8501 13.5227C17.8501 14.4189 18.5766 15.1454 19.4728 15.1454Z" fill="#6C3DFF"/>
<path d="M7.57343 21.0956C8.46965 21.0956 9.19618 20.3691 9.19618 19.4728C9.19618 18.5766 8.46965 17.8501 7.57343 17.8501C6.67721 17.8501 5.95068 18.5766 5.95068 19.4728C5.95068 20.3691 6.67721 21.0956 7.57343 21.0956Z" fill="#6C3DFF"/>
<path d="M13.5227 21.0956C14.4189 21.0956 15.1454 20.3691 15.1454 19.4728C15.1454 18.5766 14.4189 17.8501 13.5227 17.8501C12.6264 17.8501 11.8999 18.5766 11.8999 19.4728C11.8999 20.3691 12.6264 21.0956 13.5227 21.0956Z" fill="#6C3DFF"/>
<path d="M19.4728 21.0956C20.3691 21.0956 21.0956 20.3691 21.0956 19.4728C21.0956 18.5766 20.3691 17.8501 19.4728 17.8501C18.5766 17.8501 17.8501 18.5766 17.8501 19.4728C17.8501 20.3691 18.5766 21.0956 19.4728 21.0956Z" fill="#6C3DFF"/>
</svg>
