<svg width="44" height="44" viewBox="0 0 44 44" fill="none" xmlns="http://www.w3.org/2000/svg">
<path d="M30.6317 13.8621C29.955 13.1859 28.8603 13.1865 28.1848 13.8621L21.8349 20.2119L15.4873 13.8621C14.8112 13.1865 13.7165 13.1859 13.0404 13.8621C12.3649 14.5376 12.3649 15.6328 13.0404 16.309L19.3886 22.6588L13.0404 29.0058C12.3649 29.682 12.3649 30.7766 13.0404 31.4527C13.3779 31.7902 13.8209 31.959 14.2639 31.959C14.7063 31.959 15.1493 31.7902 15.4873 31.4527L21.8349 25.1051L28.1803 31.4522C28.5178 31.7902 28.9608 31.959 29.4038 31.959C29.8467 31.959 30.2892 31.7902 30.6267 31.4527C31.3028 30.7772 31.3028 29.682 30.6272 29.0064L24.2813 22.6588L30.6317 16.3084C31.3072 15.6334 31.3072 14.5376 30.6317 13.8621Z" fill="white"/>
<path d="M21.8378 0C9.79647 0 0 9.79647 0 21.8378C0 33.8763 9.79647 43.67 21.8378 43.67C33.8752 43.67 43.6683 33.8758 43.6683 21.8372C43.6683 9.79647 33.8752 0 21.8378 0ZM21.8378 40.2106C11.7044 40.2106 3.46052 31.9684 3.46052 21.8378C3.46052 11.7044 11.7049 3.46052 21.8378 3.46052C31.9679 3.46052 40.2084 11.7049 40.2084 21.8378C40.2084 31.9684 31.9673 40.2106 21.8378 40.2106Z" fill="white"/>
</svg>
