<svg width="102" height="16" viewBox="0 0 102 16" fill="none" xmlns="http://www.w3.org/2000/svg">
<path d="M23.4766 9.8418C23.3535 10.8945 22.9639 11.708 22.3076 12.2822C21.6559 12.8519 20.7878 13.1367 19.7031 13.1367C18.5273 13.1367 17.584 12.7152 16.873 11.8721C16.1667 11.029 15.8135 9.90104 15.8135 8.48828V7.53125C15.8135 6.60612 15.9775 5.79264 16.3057 5.09082C16.6383 4.389 17.1077 3.85124 17.7139 3.47754C18.32 3.09928 19.0218 2.91016 19.8193 2.91016C20.8766 2.91016 21.7243 3.20638 22.3623 3.79883C23.0003 4.38672 23.3717 5.20247 23.4766 6.24609H22.1572C22.0433 5.45312 21.7949 4.87891 21.4121 4.52344C21.0339 4.16797 20.5029 3.99023 19.8193 3.99023C18.9808 3.99023 18.3223 4.30013 17.8438 4.91992C17.3698 5.53971 17.1328 6.42155 17.1328 7.56543V8.5293C17.1328 9.60938 17.3584 10.4684 17.8096 11.1064C18.2607 11.7445 18.8919 12.0635 19.7031 12.0635C20.4323 12.0635 20.9906 11.8994 21.3779 11.5713C21.7699 11.2386 22.0296 10.6621 22.1572 9.8418H23.4766ZM24.7412 9.2334C24.7412 8.50879 24.8825 7.8571 25.165 7.27832C25.4521 6.69954 25.8486 6.25293 26.3545 5.93848C26.8649 5.62402 27.446 5.4668 28.0977 5.4668C29.1048 5.4668 29.9183 5.81543 30.5381 6.5127C31.1624 7.20996 31.4746 8.13737 31.4746 9.29492V9.38379C31.4746 10.1038 31.3356 10.751 31.0576 11.3252C30.7842 11.8949 30.39 12.3392 29.875 12.6582C29.3646 12.9772 28.7767 13.1367 28.1113 13.1367C27.1087 13.1367 26.2952 12.7881 25.6709 12.0908C25.0511 11.3936 24.7412 10.4707 24.7412 9.32227V9.2334ZM26.0127 9.38379C26.0127 10.2041 26.2018 10.8626 26.5801 11.3594C26.9629 11.8561 27.4733 12.1045 28.1113 12.1045C28.7539 12.1045 29.2643 11.8538 29.6426 11.3525C30.0208 10.8467 30.21 10.1403 30.21 9.2334C30.21 8.4222 30.0163 7.76595 29.6289 7.26465C29.2461 6.75879 28.7357 6.50586 28.0977 6.50586C27.4733 6.50586 26.9697 6.75423 26.5869 7.25098C26.2041 7.74772 26.0127 8.45866 26.0127 9.38379ZM39.3086 9.38379C39.3086 10.5094 39.0511 11.4163 38.5361 12.1045C38.0212 12.7926 37.3239 13.1367 36.4443 13.1367C35.5465 13.1367 34.8402 12.8519 34.3252 12.2822V15.8438H33.0605V5.60352H34.2158L34.2773 6.42383C34.7923 5.78581 35.5078 5.4668 36.4238 5.4668C37.3125 5.4668 38.0143 5.80176 38.5293 6.47168C39.0488 7.1416 39.3086 8.07357 39.3086 9.26758V9.38379ZM38.0439 9.24023C38.0439 8.40625 37.8662 7.74772 37.5107 7.26465C37.1553 6.78158 36.6676 6.54004 36.0479 6.54004C35.2822 6.54004 34.708 6.87956 34.3252 7.55859V11.0928C34.7035 11.7673 35.2822 12.1045 36.0615 12.1045C36.6676 12.1045 37.1484 11.8652 37.5039 11.3867C37.8639 10.9036 38.0439 10.1882 38.0439 9.24023ZM43.2598 11.1475L44.9824 5.60352H46.3359L43.3623 14.1416C42.902 15.3721 42.1706 15.9873 41.168 15.9873L40.9287 15.9668L40.457 15.8779V14.8525L40.7988 14.8799C41.2272 14.8799 41.5599 14.7933 41.7969 14.6201C42.0384 14.4469 42.2367 14.1302 42.3916 13.6699L42.6719 12.918L40.0332 5.60352H41.4141L43.2598 11.1475ZM56.6377 10.4023H52.4678L51.5312 13H50.1777L53.9785 3.04688H55.127L58.9346 13H57.5879L56.6377 10.4023ZM52.8643 9.32227H56.248L54.5527 4.66699L52.8643 9.32227ZM59.7686 9.24023C59.7686 8.10547 60.0374 7.19401 60.5752 6.50586C61.113 5.81315 61.8171 5.4668 62.6875 5.4668C63.5534 5.4668 64.2393 5.76302 64.7451 6.35547V2.5H66.0098V13H64.8477L64.7861 12.207C64.2803 12.8268 63.5762 13.1367 62.6738 13.1367C61.8171 13.1367 61.1175 12.7858 60.5752 12.084C60.0374 11.3822 59.7686 10.4661 59.7686 9.33594V9.24023ZM61.0332 9.38379C61.0332 10.2223 61.2064 10.8786 61.5527 11.3525C61.8991 11.8265 62.3776 12.0635 62.9883 12.0635C63.7904 12.0635 64.376 11.7035 64.7451 10.9834V7.58594C64.3669 6.88867 63.7858 6.54004 63.002 6.54004C62.3822 6.54004 61.8991 6.7793 61.5527 7.25781C61.2064 7.73633 61.0332 8.44499 61.0332 9.38379ZM67.6709 9.24023C67.6709 8.10547 67.9398 7.19401 68.4775 6.50586C69.0153 5.81315 69.7194 5.4668 70.5898 5.4668C71.4557 5.4668 72.1416 5.76302 72.6475 6.35547V2.5H73.9121V13H72.75L72.6885 12.207C72.1826 12.8268 71.4785 13.1367 70.5762 13.1367C69.7194 13.1367 69.0199 12.7858 68.4775 12.084C67.9398 11.3822 67.6709 10.4661 67.6709 9.33594V9.24023ZM68.9355 9.38379C68.9355 10.2223 69.1087 10.8786 69.4551 11.3525C69.8014 11.8265 70.2799 12.0635 70.8906 12.0635C71.6927 12.0635 72.2783 11.7035 72.6475 10.9834V7.58594C72.2692 6.88867 71.6882 6.54004 70.9043 6.54004C70.2845 6.54004 69.8014 6.7793 69.4551 7.25781C69.1087 7.73633 68.9355 8.44499 68.9355 9.38379ZM79.4561 6.73828C79.2646 6.70638 79.0573 6.69043 78.834 6.69043C78.0046 6.69043 77.4417 7.04362 77.1455 7.75V13H75.8809V5.60352H77.1113L77.1318 6.45801C77.5465 5.7972 78.1344 5.4668 78.8955 5.4668C79.1416 5.4668 79.3285 5.4987 79.4561 5.5625V6.73828ZM83.5576 13.1367C82.555 13.1367 81.7393 12.8086 81.1104 12.1523C80.4814 11.4915 80.167 10.6097 80.167 9.50684V9.27441C80.167 8.54069 80.306 7.88672 80.584 7.3125C80.8665 6.73372 81.2585 6.28255 81.7598 5.95898C82.2656 5.63086 82.8125 5.4668 83.4004 5.4668C84.362 5.4668 85.1094 5.78353 85.6426 6.41699C86.1758 7.05046 86.4424 7.95736 86.4424 9.1377V9.66406H81.4316C81.4499 10.3932 81.6618 10.9834 82.0674 11.4346C82.4775 11.8812 82.9971 12.1045 83.626 12.1045C84.0726 12.1045 84.4508 12.0133 84.7607 11.8311C85.0706 11.6488 85.3418 11.4072 85.5742 11.1064L86.3467 11.708C85.7269 12.6605 84.7972 13.1367 83.5576 13.1367ZM83.4004 6.50586C82.89 6.50586 82.4616 6.69271 82.1152 7.06641C81.7689 7.43555 81.5547 7.95508 81.4727 8.625H85.1777V8.5293C85.1413 7.88672 84.9681 7.38997 84.6582 7.03906C84.3483 6.68359 83.929 6.50586 83.4004 6.50586ZM92.2188 11.0381C92.2188 10.6963 92.0889 10.432 91.8291 10.2451C91.5739 10.0537 91.125 9.88965 90.4824 9.75293C89.8444 9.61621 89.3363 9.45215 88.958 9.26074C88.5843 9.06934 88.3063 8.84147 88.124 8.57715C87.9463 8.31283 87.8574 7.99837 87.8574 7.63379C87.8574 7.02767 88.1126 6.51497 88.623 6.0957C89.138 5.67643 89.7943 5.4668 90.5918 5.4668C91.4303 5.4668 92.1094 5.68327 92.6289 6.11621C93.153 6.54915 93.415 7.10286 93.415 7.77734H92.1436C92.1436 7.43099 91.9954 7.13249 91.6992 6.88184C91.4076 6.63118 91.0384 6.50586 90.5918 6.50586C90.1315 6.50586 89.7715 6.60612 89.5117 6.80664C89.252 7.00716 89.1221 7.26921 89.1221 7.59277C89.1221 7.89811 89.2428 8.12826 89.4844 8.2832C89.7259 8.43815 90.1611 8.58626 90.79 8.72754C91.4235 8.86882 91.9362 9.03743 92.3281 9.2334C92.7201 9.42936 93.0094 9.66634 93.1963 9.94434C93.3877 10.2178 93.4834 10.5527 93.4834 10.9492C93.4834 11.61 93.2191 12.141 92.6904 12.542C92.1618 12.9385 91.4759 13.1367 90.6328 13.1367C90.0404 13.1367 89.5163 13.0319 89.0605 12.8223C88.6048 12.6126 88.2471 12.321 87.9873 11.9473C87.7321 11.569 87.6045 11.1611 87.6045 10.7236H88.8691C88.8919 11.1475 89.0605 11.4847 89.375 11.7354C89.694 11.9814 90.1133 12.1045 90.6328 12.1045C91.1113 12.1045 91.4941 12.0088 91.7812 11.8174C92.0729 11.6214 92.2188 11.3617 92.2188 11.0381ZM99.4375 11.0381C99.4375 10.6963 99.3076 10.432 99.0479 10.2451C98.7926 10.0537 98.3438 9.88965 97.7012 9.75293C97.0632 9.61621 96.555 9.45215 96.1768 9.26074C95.8031 9.06934 95.5251 8.84147 95.3428 8.57715C95.165 8.31283 95.0762 7.99837 95.0762 7.63379C95.0762 7.02767 95.3314 6.51497 95.8418 6.0957C96.3568 5.67643 97.013 5.4668 97.8105 5.4668C98.6491 5.4668 99.3281 5.68327 99.8477 6.11621C100.372 6.54915 100.634 7.10286 100.634 7.77734H99.3623C99.3623 7.43099 99.2142 7.13249 98.918 6.88184C98.6263 6.63118 98.2572 6.50586 97.8105 6.50586C97.3503 6.50586 96.9902 6.60612 96.7305 6.80664C96.4707 7.00716 96.3408 7.26921 96.3408 7.59277C96.3408 7.89811 96.4616 8.12826 96.7031 8.2832C96.9447 8.43815 97.3799 8.58626 98.0088 8.72754C98.6423 8.86882 99.1549 9.03743 99.5469 9.2334C99.9388 9.42936 100.228 9.66634 100.415 9.94434C100.606 10.2178 100.702 10.5527 100.702 10.9492C100.702 11.61 100.438 12.141 99.9092 12.542C99.3805 12.9385 98.6947 13.1367 97.8516 13.1367C97.2591 13.1367 96.735 13.0319 96.2793 12.8223C95.8236 12.6126 95.4658 12.321 95.2061 11.9473C94.9508 11.569 94.8232 11.1611 94.8232 10.7236H96.0879C96.1107 11.1475 96.2793 11.4847 96.5938 11.7354C96.9128 11.9814 97.332 12.1045 97.8516 12.1045C98.3301 12.1045 98.7129 12.0088 99 11.8174C99.2917 11.6214 99.4375 11.3617 99.4375 11.0381Z" fill="white"/>
<path d="M15 14.3672H101.393V15.0508H15V14.3672Z" fill="white"/>
<rect x="0.5" y="4.5" width="7" height="7" rx="1.5" stroke="white"/>
<rect x="3.5" y="7.5" width="7" height="7" rx="1.5" fill="#191B1F" stroke="white"/>
</svg>
