<svg width="727" height="654" viewBox="0 0 727 654" fill="none" xmlns="http://www.w3.org/2000/svg">
<path opacity="0.2" d="M36.2129 408.038C46.1574 408.038 54.219 361.091 54.219 303.179C54.219 245.267 46.1574 198.32 36.2129 198.32C26.2684 198.32 18.2068 245.267 18.2068 303.179C18.2068 361.091 26.2684 408.038 36.2129 408.038Z" fill="url(#paint0_radial_221_1614)"/>
<path opacity="0.1" d="M28.5865 445.957C43.9127 445.957 56.3371 382.033 56.3371 303.179C56.3371 224.325 43.9127 160.401 28.5865 160.401C13.2603 160.401 0.835938 224.325 0.835938 303.179C0.835938 382.033 13.2603 445.957 28.5865 445.957Z" fill="url(#paint1_radial_221_1614)"/>
<path opacity="0.4" d="M42.1442 374.356C47.4089 374.356 51.6769 342.489 51.6769 303.179C51.6769 263.869 47.4089 232.002 42.1442 232.002C36.8795 232.002 32.6116 263.869 32.6116 303.179C32.6116 342.489 36.8795 374.356 42.1442 374.356Z" fill="url(#paint2_radial_221_1614)"/>
<path opacity="0.51" d="M49.9819 303.179C49.9819 323.939 47.6517 340.674 44.8978 340.674C42.1439 340.674 39.8137 323.939 39.8137 303.179C39.8137 282.419 42.1439 265.684 44.8978 265.684C47.6517 265.684 49.9819 282.419 49.9819 303.179Z" fill="url(#paint3_radial_221_1614)"/>
<path d="M194.878 305.086C194.878 305.086 220.087 323.939 225.383 326.693C231.949 330.294 228.772 344.275 210.978 335.166C193.183 326.057 180.261 314.83 172.423 314.618C172.423 314.618 190.429 323.304 193.819 329.447C197.208 335.59 204.411 343.216 206.317 347.665C207.165 349.359 201.869 356.562 192.124 349.571C184.71 344.275 183.227 339.827 177.507 335.378C172 330.93 162.043 324.786 156.324 323.515C156.324 323.515 170.517 333.26 172.212 335.166C175.389 338.556 175.813 353.384 176.448 356.774C176.872 358.68 168.399 362.917 165.009 351.478C161.62 340.039 139.589 335.166 139.589 335.166C139.589 335.166 122.43 330.294 121.371 326.693C120.312 323.727 164.374 289.833 194.878 305.086Z" fill="url(#paint4_linear_221_1614)"/>
<path opacity="0.3" d="M151.24 324.575C150.816 312.288 187.887 312.288 199.962 309.11C196.996 306.78 194.878 305.297 194.878 305.297C164.374 290.045 120.312 323.727 121.371 327.328C122.43 330.718 139.589 335.802 139.589 335.802C139.589 335.802 147.639 337.708 154.629 341.521C154.205 335.802 151.452 330.082 151.24 324.575Z" fill="url(#paint5_linear_221_1614)"/>
<path d="M93.4089 284.114C121.371 283.902 151.24 282.419 166.069 286.444C180.897 290.469 237.67 295.553 239.576 301.908C242.542 311.229 230.255 313.771 210.978 310.17C191.489 306.568 153.782 310.805 148.91 315.889C144.038 320.973 148.91 326.269 156.113 329.023C162.891 331.565 170.517 333.683 172.636 340.039C173.907 344.063 172.636 352.325 158.866 347.241C140.437 340.674 138.742 336.649 122.431 334.531C115.44 333.683 103.789 332.201 95.5273 325.846C92.5616 323.515 88.7485 322.244 84.9355 322.456L46.5931 323.939C41.7208 323.939 42.1445 283.266 46.5931 283.266C46.5931 283.266 85.571 284.114 93.4089 284.114Z" fill="url(#paint6_linear_221_1614)"/>
<path opacity="0.5" d="M171.153 337.497C170.941 338.344 170.517 339.403 170.093 340.039C167.551 344.487 163.103 344.275 158.654 342.793C152.935 340.886 147.851 338.132 142.767 334.955C139.589 333.048 136.2 330.93 132.387 330.082C128.573 329.235 124.76 329.235 120.947 329.023C108.025 327.964 99.1282 317.584 86.418 316.101C76.4617 314.83 67.3527 318.008 57.3964 318.643C51.8887 319.067 46.3809 318.008 43.2034 314.195C43.627 319.702 44.6862 323.727 46.1691 323.727L84.5115 322.244C88.3246 322.033 92.1376 323.304 95.1033 325.634C103.365 331.989 114.804 333.472 122.007 334.319C138.318 336.437 140.013 340.462 158.442 347.029C172.212 351.902 173.695 343.64 172.212 339.827C172.212 339.191 171.788 338.344 171.153 337.497Z" fill="url(#paint7_linear_221_1614)"/>
<path opacity="0.2" d="M690.787 408.038C700.732 408.038 708.793 361.091 708.793 303.179C708.793 245.267 700.732 198.32 690.787 198.32C680.843 198.32 672.781 245.267 672.781 303.179C672.781 361.091 680.843 408.038 690.787 408.038Z" fill="url(#paint8_radial_221_1614)"/>
<path opacity="0.1" d="M698.413 445.957C713.74 445.957 726.164 382.033 726.164 303.179C726.164 224.325 713.74 160.401 698.413 160.401C683.087 160.401 670.663 224.325 670.663 303.179C670.663 382.033 683.087 445.957 698.413 445.957Z" fill="url(#paint9_radial_221_1614)"/>
<path opacity="0.4" d="M684.856 374.356C690.121 374.356 694.389 342.489 694.389 303.179C694.389 263.869 690.121 232.002 684.856 232.002C679.592 232.002 675.324 263.869 675.324 303.179C675.324 342.489 679.592 374.356 684.856 374.356Z" fill="url(#paint10_radial_221_1614)"/>
<path opacity="0.51" d="M677.018 303.179C677.018 282.419 679.348 265.684 682.102 265.684C684.856 265.684 687.186 282.419 687.186 303.179C687.186 323.939 684.856 340.674 682.102 340.674C679.348 340.674 677.018 323.939 677.018 303.179Z" fill="url(#paint11_radial_221_1614)"/>
<path d="M532.122 301.061C532.122 301.061 506.914 282.207 501.618 279.453C495.051 275.852 498.228 261.871 516.022 270.98C533.817 280.089 546.739 291.316 554.577 291.528C554.577 291.528 536.571 282.843 533.181 276.699C529.792 270.556 522.589 262.93 520.683 258.482C519.836 256.787 525.131 249.584 534.876 256.575C542.29 261.871 543.773 266.32 549.493 270.768C555 275.217 564.957 281.36 570.676 282.631C570.676 282.631 556.483 272.886 554.789 270.98C551.611 267.59 551.187 252.762 550.552 249.373C550.128 247.466 558.602 243.229 561.991 254.668C565.38 266.108 587.411 270.98 587.411 270.98C587.411 270.98 604.57 275.852 605.629 279.453C606.688 282.631 562.626 316.313 532.122 301.061Z" fill="url(#paint12_linear_221_1614)"/>
<path opacity="0.3" d="M575.761 281.783C576.184 294.07 539.113 294.07 527.038 297.248C530.004 299.578 532.122 301.061 532.122 301.061C562.627 316.313 606.689 282.631 605.63 279.03C604.57 275.64 587.412 270.556 587.412 270.556C587.412 270.556 579.362 268.65 572.371 264.837C572.795 270.556 575.549 276.064 575.761 281.783Z" fill="url(#paint13_linear_221_1614)"/>
<path d="M633.592 322.244C605.63 322.456 575.761 323.939 560.932 319.914C546.104 315.889 489.331 310.805 487.425 304.45C484.459 295.129 496.746 292.587 516.023 296.188C535.512 299.79 573.219 295.553 578.091 290.469C582.963 285.385 578.091 280.089 570.888 277.335C564.11 274.793 556.484 272.675 554.365 266.319C553.094 262.295 554.365 254.033 568.135 259.117C586.564 265.684 588.259 269.709 604.57 271.827C611.561 272.675 623.212 274.157 631.474 280.512C634.439 282.843 638.252 284.114 642.065 283.902L680.408 282.419C685.28 282.419 684.856 323.092 680.408 323.092C680.408 323.092 641.43 322.244 633.592 322.244Z" fill="url(#paint14_linear_221_1614)"/>
<path opacity="0.5" d="M555.848 268.861C556.06 268.014 556.484 266.955 556.907 266.319C559.449 261.871 563.898 262.083 568.347 263.565C574.066 265.472 579.15 268.226 584.234 271.403C587.412 273.31 590.801 275.428 594.614 276.276C598.427 277.123 602.24 277.123 606.053 277.335C618.976 278.394 627.873 288.774 640.583 290.257C650.539 291.528 659.648 288.35 669.604 287.715C675.112 287.291 680.62 288.35 683.798 292.163C683.374 286.656 682.315 282.631 680.832 282.631L642.489 284.114C638.676 284.325 634.863 283.054 631.898 280.724C623.636 274.369 612.197 272.886 604.994 272.039C588.683 269.921 586.988 265.896 568.558 259.329C554.789 254.457 553.306 262.718 554.789 266.531C554.789 267.167 555.213 268.014 555.848 268.861Z" fill="url(#paint15_linear_221_1614)"/>
<path d="M349.362 0.211243C325.637 0.211243 306.571 33.2577 306.571 73.9303C306.571 114.603 325.637 147.649 349.362 147.649H364.191V0.423092H349.362V0.211243Z" fill="url(#paint16_linear_221_1614)"/>
<path opacity="0.4" d="M309.325 73.7192C309.325 33.0465 328.39 0 352.116 0H349.362C325.637 0 306.571 33.0465 306.571 73.7192C306.571 114.392 325.637 147.438 349.362 147.438H352.116C328.602 147.438 309.325 114.392 309.325 73.7192Z" fill="url(#paint17_linear_221_1614)"/>
<path d="M364.191 147.438C387.824 147.438 406.982 114.433 406.982 73.7192C406.982 33.0052 387.824 0 364.191 0C340.558 0 321.4 33.0052 321.4 73.7192C321.4 114.433 340.558 147.438 364.191 147.438Z" fill="url(#paint18_linear_221_1614)"/>
<path opacity="0.4" d="M321.4 74.3546C321.4 33.682 340.465 0.635459 364.191 0.635459C366.097 0.635459 367.792 0.847302 369.487 1.27097C367.157 0.635465 364.615 0.211792 362.072 0.211792C338.347 0.211792 319.281 33.2583 319.281 73.9309C319.281 111.426 335.593 142.354 356.777 147.014C336.652 140.659 321.4 110.579 321.4 74.3546Z" fill="url(#paint19_linear_221_1614)"/>
<path d="M323.518 74.3546C323.518 33.682 342.584 0.635459 366.309 0.635459C368.216 0.635459 369.91 0.847302 371.605 1.27097C369.275 0.635465 366.733 0.211792 364.191 0.211792C340.465 0.211792 321.4 33.2583 321.4 73.9309C321.4 111.426 337.711 142.354 358.895 147.014C338.77 140.659 323.518 110.579 323.518 74.3546Z" fill="url(#paint20_linear_221_1614)"/>
<path d="M368.428 127.949C385.158 127.949 398.72 103.67 398.72 73.7191C398.72 43.7686 385.158 19.489 368.428 19.489C351.697 19.489 338.135 43.7686 338.135 73.7191C338.135 103.67 351.697 127.949 368.428 127.949Z" fill="url(#paint21_linear_221_1614)"/>
<path d="M399.779 75.8375C399.779 105.918 386.222 130.068 369.487 130.068C360.378 130.068 352.116 122.865 346.608 111.214C352.116 121.594 359.954 127.949 368.428 127.949C385.163 127.949 398.72 103.588 398.72 73.7191C398.72 59.9497 395.966 47.4513 391.094 37.7068C396.39 47.6632 399.779 61.0089 399.779 75.8375Z" fill="url(#paint22_linear_221_1614)"/>
<path d="M383.68 83.6754C383.68 77.9559 380.714 72.8718 376.478 72.0244C380.079 70.5416 382.409 66.5167 382.197 60.7971C382.197 54.2302 379.02 48.7224 371.605 46.6041V38.978L369.699 37.9188H367.58V45.7567L364.403 45.1212V37.0714L362.285 35.8004H360.166V44.062L354.658 42.5792H352.54V104.224H354.658L359.954 102.529V111.638H362.073L364.403 110.367V101.47L367.58 100.622V109.308H369.699L371.605 108.037V99.775C379.655 97.6567 383.68 91.3016 383.68 83.6754ZM376.266 61.8563C376.266 66.093 373.088 68.2114 369.063 67.9996L360.378 67.5759V53.171L369.063 54.442C372.876 55.0775 376.266 57.8314 376.266 61.8563ZM369.911 91.0897L360.378 92.5726V76.473L369.699 76.2612C373.724 76.0493 376.266 78.8032 376.266 83.2518C376.266 87.7004 373.936 90.4542 369.911 91.0897Z" fill="url(#paint23_linear_221_1614)"/>
<path d="M385.798 83.6754C385.798 77.9559 382.833 72.8718 378.596 72.0244C382.197 70.5416 384.527 66.5167 384.315 60.7971C384.315 54.2302 381.138 48.7224 373.723 46.6041V38.978L369.699 37.9188V45.7567L366.521 45.1212V37.0714L362.284 35.8004V44.062L354.658 42.5792V104.224L362.072 102.529V111.638L366.521 110.367V101.47L369.699 100.622V109.308L373.723 108.037V99.775C381.773 97.6567 385.798 91.3016 385.798 83.6754ZM378.384 61.8563C378.384 66.093 375.206 68.2114 371.181 67.9996L362.496 67.5759V53.171L371.181 54.442C374.995 55.0775 378.384 57.8314 378.384 61.8563ZM372.029 91.0897L362.496 92.5726V76.473L371.817 76.2612C375.842 76.0493 378.384 78.8032 378.384 83.2518C378.384 87.7004 376.054 90.4542 372.029 91.0897Z" fill="url(#paint24_linear_221_1614)"/>
<path d="M377.113 58.0433C378.384 59.3143 379.232 60.7971 379.232 62.9155C379.232 67.1522 376.054 69.2706 372.029 69.0587L362.496 68.635V67.5759L371.182 67.9996C375.207 68.2114 378.384 66.093 378.384 61.8563C378.384 60.3735 377.961 59.1024 377.113 58.0433ZM379.232 84.311C379.232 81.9808 378.596 80.0743 377.113 79.0151C377.961 80.0743 378.172 81.5571 378.384 83.4636C378.384 87.9122 376.054 90.6661 372.029 91.3016L362.496 92.7845V93.8436L372.876 92.1489C376.901 91.5134 379.232 88.7596 379.232 84.311ZM363.132 102.317L362.285 102.529V111.638L363.132 111.426V102.317ZM370.758 100.622L369.911 100.834V109.52L370.758 109.308V100.622ZM366.733 45.1212V45.9686L370.758 46.8159V38.978L373.936 39.8253V38.978L369.911 37.9188V45.7567L366.733 45.1212ZM355.718 43.6384L363.344 45.1212V36.8596L366.733 37.9188V37.0714L362.496 35.8004V44.062L354.87 42.5792V104.224L355.718 104.012V43.6384Z" fill="url(#paint25_linear_221_1614)"/>
<path d="M368.428 19.489C367.792 19.489 366.945 19.4889 366.309 19.7008C381.985 21.6073 394.484 45.1211 394.484 73.9309C394.484 102.741 381.985 126.043 366.309 128.161C366.945 128.161 367.792 128.373 368.428 128.373C385.163 128.373 398.72 104.012 398.72 74.1427C398.72 43.8501 385.163 19.489 368.428 19.489Z" fill="url(#paint26_linear_221_1614)"/>
<path opacity="0.4" d="M324.366 47.4508H309.537C310.173 45.1206 310.596 42.7904 311.444 40.4602H326.272C325.425 42.7904 324.789 45.1206 324.366 47.4508ZM331.992 25.4198H317.163C316.104 27.75 315.045 30.0802 313.986 32.4104H328.814C329.661 30.0802 330.721 27.75 331.992 25.4198ZM364.191 0.211243H349.362C345.549 0.211243 341.736 1.05858 338.135 2.75327H352.964C356.565 1.05858 360.378 0.211243 364.191 0.211243ZM321.4 73.7185C321.4 72.4475 321.4 71.3883 321.4 70.1173H306.571C306.571 71.3883 306.571 72.4475 306.571 73.7185C306.571 74.9896 306.571 76.0487 306.571 77.3197H321.4C321.4 76.0487 321.4 74.9896 321.4 73.7185ZM342.372 10.5912H327.543C325.425 12.7096 323.73 15.0398 321.824 17.5818H336.652C338.347 15.0398 340.253 12.7096 342.372 10.5912ZM322.883 55.2887H308.054C307.63 57.6189 307.419 59.9491 307.207 62.2793H322.035C322.247 59.9491 322.459 57.6189 322.883 55.2887ZM338.135 144.896C341.736 146.59 345.549 147.438 349.362 147.438H364.191C360.378 147.438 356.565 146.59 352.964 144.896H338.135ZM336.652 129.855H321.824C323.518 132.397 325.425 134.727 327.543 136.846H342.372C340.253 134.939 338.347 132.609 336.652 129.855ZM324.366 99.9863H309.537C310.173 102.316 310.596 104.647 311.444 106.977H326.272C325.425 104.858 324.789 102.528 324.366 99.9863ZM328.814 115.027H313.986C315.045 117.569 316.104 119.899 317.163 122.017H331.992C330.721 119.899 329.661 117.569 328.814 115.027ZM322.035 85.1577H307.207C307.419 87.4879 307.63 89.8181 308.054 92.1483H322.883C322.459 89.8181 322.247 87.4879 322.035 85.1577Z" fill="url(#paint27_linear_221_1614)"/>
<path opacity="0.79" d="M524.942 413.456C524.942 432.945 468.382 456.459 359.922 456.459C274.34 456.459 198.502 437.817 198.502 413.456V104.175H524.942V413.456Z" fill="url(#paint28_linear_221_1614)"/>
<path opacity="0.25" d="M199 374.198C199 362.325 255.484 348 363.798 348C449.265 348 525 359.357 525 374.198L525 654L199 654L199 374.198Z" fill="url(#paint29_linear_221_1614)"/>
<path d="M363.5 471.589C258.006 471.589 175.177 451.465 175.177 425.621C175.177 399.777 257.794 379.652 363.5 379.652C468.995 379.652 551.823 399.777 551.823 425.621C551.823 451.465 468.995 471.589 363.5 471.589ZM363.5 381.559C260.971 381.559 177.296 401.259 177.296 425.621C177.296 449.982 260.759 469.683 363.5 469.683C466.029 469.683 549.704 449.982 549.704 425.621C549.704 401.471 466.029 381.559 363.5 381.559ZM363.5 456.972C271.775 456.972 199.962 441.296 199.962 421.384C199.962 401.471 271.775 385.795 363.5 385.795C455.225 385.795 527.038 401.471 527.038 421.384C527.038 441.296 455.225 456.972 363.5 456.972ZM363.5 387.49C276.012 387.49 202.081 402.954 202.081 421.172C202.081 439.39 276.012 454.854 363.5 454.854C450.989 454.854 524.92 439.39 524.92 421.172C524.92 402.954 450.989 387.49 363.5 387.49Z" fill="url(#paint30_linear_221_1614)"/>
<path d="M363.5 450.405C271.986 450.405 200.386 431.34 200.386 406.767C200.386 382.406 271.986 363.129 363.5 363.129C455.013 363.129 526.614 382.194 526.614 406.767C526.614 431.34 455.013 450.405 363.5 450.405ZM363.5 365.035C274.529 365.035 202.08 383.677 202.08 406.767C202.08 429.857 274.529 448.499 363.5 448.499C452.471 448.499 524.919 429.857 524.919 406.767C524.919 383.889 452.471 365.035 363.5 365.035ZM363.5 436.424C284.061 436.424 221.781 421.596 221.781 402.53C221.781 383.465 284.061 368.637 363.5 368.637C442.939 368.637 505.219 383.465 505.219 402.53C505.219 421.596 442.939 436.424 363.5 436.424ZM363.5 370.755C287.662 370.755 223.476 385.372 223.476 402.742C223.476 420.113 287.662 434.73 363.5 434.73C439.337 434.73 503.524 420.113 503.524 402.742C503.524 385.372 439.337 370.755 363.5 370.755Z" fill="url(#paint31_linear_221_1614)"/>
<path d="M325.37 399.777C310.965 398.506 297.831 396.599 287.239 394.057C278.554 391.939 271.775 389.608 266.903 387.066C261.819 384.312 259.065 381.347 259.065 378.381H269.868C269.868 381.135 272.199 383.677 276.859 386.219C281.096 388.549 287.451 390.668 295.077 392.362C304.61 394.692 316.473 396.387 329.395 397.446L325.37 399.777ZM457.344 391.091L448.235 389.82C437.855 393.21 423.45 395.963 406.079 397.446L410.528 399.565C429.805 397.87 445.905 394.904 457.344 391.091ZM467.936 370.543C460.31 366.094 446.964 362.493 429.17 359.739L423.026 361.646C439.126 363.976 451.201 367.366 457.979 371.39L467.936 370.543ZM366.89 357.833V355.503C343.799 355.503 321.98 356.986 303.339 359.951L309.694 361.858C326.429 359.316 346.13 357.833 366.89 357.833ZM284.909 380.923C283.214 378.381 284.062 375.839 287.451 373.297C290.205 371.39 294.442 369.484 300.161 367.789C306.304 366.095 313.93 364.612 322.828 363.341L326.853 364.824C319.015 365.883 312.024 367.154 306.516 368.848C301.432 370.331 297.407 372.026 295.077 373.721C292.111 375.839 291.264 378.169 292.747 380.499L284.909 380.923ZM360.958 395.752L361.17 394.057C347.189 393.845 333.631 392.998 322.192 391.091L317.532 392.574C330.454 394.481 345.282 395.752 360.958 395.752ZM425.568 389.185C435.736 386.431 441.668 383.041 442.939 379.652L434.889 379.44C433.83 382.618 428.322 385.583 419.213 388.126L425.568 389.185ZM425.145 370.331L431.923 369.484C423.238 366.306 410.316 363.764 394.64 362.281L391.463 363.976C405.656 365.035 417.307 367.366 425.145 370.331ZM363.5 366.73C336.173 366.73 313.93 372.026 313.93 378.381C313.93 384.948 336.173 390.032 363.5 390.032C390.827 390.032 413.07 384.736 413.07 378.381C413.07 372.026 390.827 366.73 363.5 366.73ZM363.5 423.714C285.121 423.714 221.358 406.979 221.358 386.219C221.358 365.671 285.121 348.724 363.5 348.724C441.88 348.724 505.643 365.459 505.643 386.219C505.643 406.767 441.88 423.714 363.5 423.714ZM363.5 349.359C286.18 349.359 223.264 365.459 223.264 385.16C223.264 404.861 286.18 420.96 363.5 420.96C440.821 420.96 503.736 404.861 503.736 385.16C503.736 365.459 440.821 349.359 363.5 349.359ZM363.5 411.428C294.653 411.428 238.517 398.506 238.517 382.618C238.517 366.73 294.653 353.808 363.5 353.808C432.347 353.808 488.484 366.73 488.484 382.618C488.484 398.506 432.347 411.428 363.5 411.428ZM363.5 354.232C295.713 354.232 240.635 366.518 240.635 381.77C240.635 397.023 295.713 409.309 363.5 409.309C431.288 409.309 486.365 397.023 486.365 381.77C486.365 366.518 431.288 354.232 363.5 354.232Z" fill="url(#paint32_radial_221_1614)"/>
<path d="M363.5 363.976C327.064 363.976 297.407 358.257 297.407 351.266C297.407 344.275 327.064 338.556 363.5 338.556C399.936 338.556 429.593 344.275 429.593 351.266C429.593 358.257 399.936 363.976 363.5 363.976ZM363.5 338.556C327.7 338.556 298.678 344.275 298.678 351.054C298.678 358.045 327.7 363.552 363.5 363.552C399.3 363.552 428.322 357.833 428.322 351.054C428.322 344.275 399.3 338.556 363.5 338.556Z" fill="url(#paint33_radial_221_1614)"/>
<path d="M363.5 351.054C340.834 351.054 322.404 347.453 322.404 343.004C322.404 338.556 340.834 334.954 363.5 334.954C386.167 334.954 404.596 338.556 404.596 343.004C404.596 347.453 386.167 351.054 363.5 351.054ZM363.5 335.166C341.257 335.166 323.039 338.768 323.039 343.004C323.039 347.241 341.257 350.842 363.5 350.842C385.743 350.842 403.961 347.241 403.961 343.004C403.961 338.768 385.743 335.166 363.5 335.166Z" fill="url(#paint34_radial_221_1614)"/>
<path opacity="0.7" d="M437.431 185.61C437.431 187.728 435.737 189.635 433.406 189.635C431.288 189.635 429.382 187.94 429.382 185.61C429.382 183.491 431.076 181.585 433.406 181.585C435.737 181.585 437.431 183.491 437.431 185.61ZM348.672 205.946C347.189 205.946 345.918 207.217 345.918 208.7C345.918 210.183 347.189 211.454 348.672 211.454C350.155 211.454 351.426 210.183 351.426 208.7C351.426 207.217 350.155 205.946 348.672 205.946ZM300.585 181.585C298.89 181.585 297.407 183.068 297.407 184.762C297.407 186.457 298.89 187.94 300.585 187.94C302.28 187.94 303.763 186.457 303.763 184.762C303.763 183.068 302.492 181.585 300.585 181.585ZM274.741 297.671C272.411 297.671 270.292 299.578 270.292 302.12C270.292 304.662 272.199 306.568 274.741 306.568C277.071 306.568 279.189 304.662 279.189 302.12C279.189 299.578 277.283 297.671 274.741 297.671ZM315.202 352.749C312.66 352.749 310.541 354.867 310.541 357.409C310.541 359.951 312.66 362.07 315.202 362.07C317.744 362.07 319.862 359.951 319.862 357.409C319.862 354.867 317.744 352.749 315.202 352.749ZM419.213 320.126C417.731 320.126 416.671 321.185 416.671 322.668C416.671 324.151 417.731 325.21 419.213 325.21C420.696 325.21 421.755 324.151 421.755 322.668C421.755 321.185 420.696 320.126 419.213 320.126ZM473.232 236.239C470.266 236.239 467.936 238.569 467.936 241.535C467.936 244.5 470.266 246.831 473.232 246.831C476.197 246.831 478.528 244.5 478.528 241.535C478.528 238.569 476.197 236.239 473.232 236.239ZM409.045 155.317C407.562 155.317 406.291 156.588 406.291 158.071C406.291 159.554 407.562 160.825 409.045 160.825C410.528 160.825 411.799 159.554 411.799 158.071C411.799 156.588 410.528 155.317 409.045 155.317ZM235.551 158.071C233.856 158.071 232.585 159.342 232.585 161.037C232.585 162.731 233.856 164.003 235.551 164.003C237.246 164.003 238.517 162.731 238.517 161.037C238.517 159.554 237.246 158.071 235.551 158.071ZM249.532 398.717C247.414 398.717 245.507 400.412 245.507 402.742C245.507 405.072 247.202 406.767 249.532 406.767C251.863 406.767 253.557 405.072 253.557 402.742C253.557 400.412 251.651 398.717 249.532 398.717ZM238.729 278.818C237.034 278.818 235.551 280.301 235.551 281.995C235.551 283.69 237.034 285.173 238.729 285.173C240.423 285.173 241.906 283.69 241.906 281.995C242.118 280.301 240.635 278.818 238.729 278.818ZM463.064 276.911C461.581 276.911 460.522 277.971 460.522 279.453C460.522 280.936 461.581 281.995 463.064 281.995C464.546 281.995 465.606 280.936 465.606 279.453C465.606 278.182 464.546 276.911 463.064 276.911ZM490.179 163.791C489.331 163.791 488.484 164.638 488.484 165.485C488.484 166.333 489.331 167.18 490.179 167.18C491.026 167.18 491.873 166.333 491.873 165.485C491.873 164.638 491.026 163.791 490.179 163.791ZM450.565 375.204C447.811 375.204 445.481 377.534 445.481 380.288C445.481 383.041 447.811 385.372 450.565 385.372C453.319 385.372 455.649 383.041 455.649 380.288C455.649 377.534 453.319 375.204 450.565 375.204ZM248.473 346.817C246.778 346.817 245.507 348.088 245.507 349.783C245.507 351.478 246.778 352.749 248.473 352.749C250.168 352.749 251.439 351.478 251.439 349.783C251.227 348.088 249.956 346.817 248.473 346.817ZM504.16 365.671C503.313 365.671 502.465 366.518 502.465 367.366C502.465 368.213 503.313 369.06 504.16 369.06C505.007 369.06 505.855 368.213 505.855 367.366C505.855 366.518 505.007 365.671 504.16 365.671Z" fill="url(#paint35_linear_221_1614)"/>
<g opacity="0.68">
<path opacity="0.68" d="M216.909 340.886H216.486C215.426 340.886 214.367 340.038 214.367 338.767V176.501C214.367 175.442 215.215 174.382 216.486 174.382H216.909C217.968 174.382 219.028 175.23 219.028 176.501V338.767C218.816 340.038 217.968 340.886 216.909 340.886Z" fill="url(#paint36_linear_221_1614)"/>
<path opacity="0.68" d="M261.818 225.223H261.395C260.336 225.223 259.276 224.376 259.276 223.105V126.084C259.276 125.024 260.124 123.965 261.395 123.965H261.818C262.878 123.965 263.937 124.813 263.937 126.084V223.105C263.937 224.376 263.089 225.223 261.818 225.223Z" fill="url(#paint37_linear_221_1614)"/>
<path opacity="0.68" d="M259.7 391.515H259.276C258.217 391.515 257.158 390.668 257.158 389.397V292.375C257.158 291.316 258.005 290.257 259.276 290.257H259.7C260.759 290.257 261.818 291.104 261.818 292.375V389.397C261.607 390.668 260.759 391.515 259.7 391.515Z" fill="url(#paint38_linear_221_1614)"/>
<path opacity="0.68" d="M510.515 241.746H510.091C509.032 241.746 507.973 240.899 507.973 239.628V142.607C507.973 141.548 508.82 140.489 510.091 140.489H510.515C511.574 140.489 512.633 141.336 512.633 142.607V239.628C512.633 240.899 511.574 241.746 510.515 241.746Z" fill="url(#paint39_linear_221_1614)"/>
<path opacity="0.68" d="M310.964 256.151H310.541C309.482 256.151 308.422 255.304 308.422 254.033V157.012C308.422 155.953 309.27 154.893 310.541 154.893H310.964C312.024 154.893 313.083 155.741 313.083 157.012V254.033C313.083 255.304 312.024 256.151 310.964 256.151Z" fill="url(#paint40_linear_221_1614)"/>
<path opacity="0.68" d="M359.263 445.321H358.84C357.78 445.321 356.721 444.474 356.721 443.203V346.182C356.721 345.123 357.569 344.063 358.84 344.063H359.263C360.322 344.063 361.382 344.911 361.382 346.182V443.203C361.17 444.474 360.322 445.321 359.263 445.321Z" fill="url(#paint41_linear_221_1614)"/>
<path opacity="0.68" d="M420.484 256.151H420.061C419.002 256.151 417.942 255.304 417.942 254.033V157.012C417.942 155.953 418.79 154.893 420.061 154.893H420.484C421.544 154.893 422.603 155.741 422.603 157.012V254.033C422.391 255.304 421.544 256.151 420.484 256.151Z" fill="url(#paint42_linear_221_1614)"/>
<path opacity="0.68" d="M477.68 394.692H477.257C476.197 394.692 475.138 393.845 475.138 392.574V295.553C475.138 294.494 475.986 293.435 477.257 293.435H477.68C478.739 293.435 479.799 294.282 479.799 295.553V392.574C479.799 393.845 478.951 394.692 477.68 394.692Z" fill="url(#paint43_linear_221_1614)"/>
<path opacity="0.68" d="M458.826 297.459H458.403C457.344 297.459 456.284 296.612 456.284 295.341V133.074C456.284 132.015 457.132 130.956 458.403 130.956H458.826C459.886 130.956 460.945 131.803 460.945 133.074V295.341C460.733 296.612 459.886 297.459 458.826 297.459Z" fill="url(#paint44_linear_221_1614)"/>
</g>
<defs>
<radialGradient id="paint0_radial_221_1614" cx="0" cy="0" r="1" gradientUnits="userSpaceOnUse" gradientTransform="translate(36.2383 303.178) scale(19.3133 102.938)">
<stop offset="0.00500801" stop-color="#6C3DFF"/>
<stop offset="0.3256" stop-color="#6E3FFF"/>
<stop offset="0.506" stop-color="#7448FE"/>
<stop offset="0.6516" stop-color="#7F55FC"/>
<stop offset="0.7787" stop-color="#8E69F9"/>
<stop offset="0.8924" stop-color="#A282F6"/>
<stop offset="0.9972" stop-color="#BAA1F2"/>
<stop offset="1" stop-color="#BBA2F2"/>
</radialGradient>
<radialGradient id="paint1_radial_221_1614" cx="0" cy="0" r="1" gradientUnits="userSpaceOnUse" gradientTransform="translate(28.6835 303.158) scale(29.7238 140.285)">
<stop offset="0.00500801" stop-color="#6C3DFF"/>
<stop offset="0.3256" stop-color="#6E3FFF"/>
<stop offset="0.506" stop-color="#7448FE"/>
<stop offset="0.6516" stop-color="#7F55FC"/>
<stop offset="0.7787" stop-color="#8E69F9"/>
<stop offset="0.8924" stop-color="#A282F6"/>
<stop offset="0.9972" stop-color="#BAA1F2"/>
<stop offset="1" stop-color="#BBA2F2"/>
</radialGradient>
<radialGradient id="paint2_radial_221_1614" cx="0" cy="0" r="1" gradientUnits="userSpaceOnUse" gradientTransform="translate(42.08 303.129) scale(10.0656 70.2007)">
<stop offset="0.00500801" stop-color="#6C3DFF"/>
<stop offset="0.3256" stop-color="#6E3FFF"/>
<stop offset="0.506" stop-color="#7448FE"/>
<stop offset="0.6516" stop-color="#7F55FC"/>
<stop offset="0.7787" stop-color="#8E69F9"/>
<stop offset="0.8924" stop-color="#A282F6"/>
<stop offset="0.9972" stop-color="#BAA1F2"/>
<stop offset="1" stop-color="#BBA2F2"/>
</radialGradient>
<radialGradient id="paint3_radial_221_1614" cx="0" cy="0" r="1" gradientUnits="userSpaceOnUse" gradientTransform="translate(44.8955 303.148) scale(26.7516)">
<stop stop-color="#BB3BF2"/>
<stop offset="0.9981" stop-color="#6C3DFF"/>
</radialGradient>
<linearGradient id="paint4_linear_221_1614" x1="228.511" y1="359.487" x2="146.908" y2="310.793" gradientUnits="userSpaceOnUse">
<stop stop-color="#FFD3AB"/>
<stop offset="1" stop-color="#FF8AAC"/>
</linearGradient>
<linearGradient id="paint5_linear_221_1614" x1="228.938" y1="358.77" x2="147.336" y2="310.076" gradientUnits="userSpaceOnUse">
<stop stop-color="#FFD3AB"/>
<stop offset="1" stop-color="#FF8AAC"/>
</linearGradient>
<linearGradient id="paint6_linear_221_1614" x1="207.33" y1="316.092" x2="18.268" y2="316.092" gradientUnits="userSpaceOnUse">
<stop stop-color="#FFD3AB"/>
<stop offset="1" stop-color="#FF88AD"/>
</linearGradient>
<linearGradient id="paint7_linear_221_1614" x1="207.329" y1="331.647" x2="18.2677" y2="331.647" gradientUnits="userSpaceOnUse">
<stop stop-color="#FFD3AB"/>
<stop offset="1" stop-color="#FF88AD"/>
</linearGradient>
<radialGradient id="paint8_radial_221_1614" cx="0" cy="0" r="1" gradientUnits="userSpaceOnUse" gradientTransform="translate(690.762 303.117) rotate(180) scale(19.3133 102.938)">
<stop offset="0.00500801" stop-color="#6C3DFF"/>
<stop offset="0.3256" stop-color="#6E3FFF"/>
<stop offset="0.506" stop-color="#7448FE"/>
<stop offset="0.6516" stop-color="#7F55FC"/>
<stop offset="0.7787" stop-color="#8E69F9"/>
<stop offset="0.8924" stop-color="#A282F6"/>
<stop offset="0.9972" stop-color="#BAA1F2"/>
<stop offset="1" stop-color="#BBA2F2"/>
</radialGradient>
<radialGradient id="paint9_radial_221_1614" cx="0" cy="0" r="1" gradientUnits="userSpaceOnUse" gradientTransform="translate(698.316 303.137) rotate(180) scale(29.7239 140.285)">
<stop offset="0.00500801" stop-color="#6C3DFF"/>
<stop offset="0.3256" stop-color="#6E3FFF"/>
<stop offset="0.506" stop-color="#7448FE"/>
<stop offset="0.6516" stop-color="#7F55FC"/>
<stop offset="0.7787" stop-color="#8E69F9"/>
<stop offset="0.8924" stop-color="#A282F6"/>
<stop offset="0.9972" stop-color="#BAA1F2"/>
<stop offset="1" stop-color="#BBA2F2"/>
</radialGradient>
<radialGradient id="paint10_radial_221_1614" cx="0" cy="0" r="1" gradientUnits="userSpaceOnUse" gradientTransform="translate(684.921 303.166) rotate(180) scale(10.0656 70.2007)">
<stop offset="0.00500801" stop-color="#6C3DFF"/>
<stop offset="0.3256" stop-color="#6E3FFF"/>
<stop offset="0.506" stop-color="#7448FE"/>
<stop offset="0.6516" stop-color="#7F55FC"/>
<stop offset="0.7787" stop-color="#8E69F9"/>
<stop offset="0.8924" stop-color="#A282F6"/>
<stop offset="0.9972" stop-color="#BAA1F2"/>
<stop offset="1" stop-color="#BBA2F2"/>
</radialGradient>
<radialGradient id="paint11_radial_221_1614" cx="0" cy="0" r="1" gradientUnits="userSpaceOnUse" gradientTransform="translate(682.104 303.148) rotate(180) scale(26.7515)">
<stop stop-color="#BB3BF2"/>
<stop offset="0.9981" stop-color="#6C3DFF"/>
</radialGradient>
<linearGradient id="paint12_linear_221_1614" x1="498.49" y1="246.808" x2="580.092" y2="295.502" gradientUnits="userSpaceOnUse">
<stop stop-color="#FFD3AB"/>
<stop offset="1" stop-color="#FF8AAC"/>
</linearGradient>
<linearGradient id="paint13_linear_221_1614" x1="498.062" y1="247.525" x2="579.665" y2="296.219" gradientUnits="userSpaceOnUse">
<stop stop-color="#FFD3AB"/>
<stop offset="1" stop-color="#FF8AAC"/>
</linearGradient>
<linearGradient id="paint14_linear_221_1614" x1="519.671" y1="290.202" x2="708.733" y2="290.202" gradientUnits="userSpaceOnUse">
<stop stop-color="#FFD3AB"/>
<stop offset="1" stop-color="#FF88AD"/>
</linearGradient>
<linearGradient id="paint15_linear_221_1614" x1="519.671" y1="274.648" x2="708.733" y2="274.648" gradientUnits="userSpaceOnUse">
<stop stop-color="#FFD3AB"/>
<stop offset="1" stop-color="#FF88AD"/>
</linearGradient>
<linearGradient id="paint16_linear_221_1614" x1="340.524" y1="73.7766" x2="297.112" y2="73.7766" gradientUnits="userSpaceOnUse">
<stop stop-color="#FFDA19"/>
<stop offset="1" stop-color="#FF9C19"/>
</linearGradient>
<linearGradient id="paint17_linear_221_1614" x1="333.424" y1="73.7772" x2="299.103" y2="73.7772" gradientUnits="userSpaceOnUse">
<stop stop-color="#FFDA19"/>
<stop offset="1" stop-color="#FF9C19"/>
</linearGradient>
<linearGradient id="paint18_linear_221_1614" x1="436.87" y1="73.7772" x2="319.428" y2="73.7772" gradientUnits="userSpaceOnUse">
<stop stop-color="#FFDA19"/>
<stop offset="0.9975" stop-color="#FFFF70"/>
</linearGradient>
<linearGradient id="paint19_linear_221_1614" x1="344.356" y1="101.858" x2="344.356" y2="24.2989" gradientUnits="userSpaceOnUse">
<stop stop-color="#FFDA19"/>
<stop offset="1" stop-color="#FF9C19"/>
</linearGradient>
<linearGradient id="paint20_linear_221_1614" x1="346.6" y1="101.858" x2="346.6" y2="24.2989" gradientUnits="userSpaceOnUse">
<stop stop-color="#FFDA19"/>
<stop offset="0.9975" stop-color="#FFFF70"/>
</linearGradient>
<linearGradient id="paint21_linear_221_1614" x1="406.605" y1="73.7771" x2="335.956" y2="73.7771" gradientUnits="userSpaceOnUse">
<stop stop-color="#FFDA19"/>
<stop offset="1" stop-color="#FFD95A"/>
</linearGradient>
<linearGradient id="paint22_linear_221_1614" x1="406.695" y1="83.9963" x2="344.634" y2="83.9963" gradientUnits="userSpaceOnUse">
<stop stop-color="#FFDA19"/>
<stop offset="0.9975" stop-color="#FFFF70"/>
</linearGradient>
<linearGradient id="paint23_linear_221_1614" x1="389.496" y1="73.7772" x2="334.804" y2="73.7772" gradientUnits="userSpaceOnUse">
<stop stop-color="#FFDA19"/>
<stop offset="1" stop-color="#FF9C19"/>
</linearGradient>
<linearGradient id="paint24_linear_221_1614" x1="395.818" y1="73.7772" x2="341.085" y2="73.7772" gradientUnits="userSpaceOnUse">
<stop stop-color="#FFDA19"/>
<stop offset="0.9975" stop-color="#FFFF70"/>
</linearGradient>
<linearGradient id="paint25_linear_221_1614" x1="387.095" y1="73.7772" x2="344.034" y2="73.7772" gradientUnits="userSpaceOnUse">
<stop stop-color="#FFDA19"/>
<stop offset="0.9975" stop-color="#FFFF70"/>
</linearGradient>
<linearGradient id="paint26_linear_221_1614" x1="366.347" y1="73.7771" x2="398.695" y2="73.7771" gradientUnits="userSpaceOnUse">
<stop stop-color="#FFDA19"/>
<stop offset="1" stop-color="#FF9C19"/>
</linearGradient>
<linearGradient id="paint27_linear_221_1614" x1="348.338" y1="73.7766" x2="280.391" y2="73.7766" gradientUnits="userSpaceOnUse">
<stop stop-color="#FFDA19"/>
<stop offset="1" stop-color="#FF9C19"/>
</linearGradient>
<linearGradient id="paint28_linear_221_1614" x1="361.828" y1="168.816" x2="361.828" y2="451.003" gradientUnits="userSpaceOnUse">
<stop stop-color="#E86FFF" stop-opacity="0"/>
<stop offset="0.3742" stop-color="#A0A3FF" stop-opacity="0.3742"/>
<stop offset="0.8024" stop-color="#53DBFF" stop-opacity="0.8024"/>
<stop offset="1" stop-color="#34F1FF"/>
</linearGradient>
<linearGradient id="paint29_linear_221_1614" x1="361.894" y1="523.237" x2="361.894" y2="351.324" gradientUnits="userSpaceOnUse">
<stop stop-color="#E86FFF" stop-opacity="0"/>
<stop offset="0.3742" stop-color="#A0A3FF" stop-opacity="0.3742"/>
<stop offset="0.8024" stop-color="#53DBFF" stop-opacity="0.8024"/>
<stop offset="1" stop-color="#34F1FF"/>
</linearGradient>
<linearGradient id="paint30_linear_221_1614" x1="363.5" y1="404.137" x2="363.5" y2="495.571" gradientUnits="userSpaceOnUse">
<stop stop-color="#BB3BF2" stop-opacity="0"/>
<stop offset="1" stop-color="#A800BD"/>
</linearGradient>
<linearGradient id="paint31_linear_221_1614" x1="363.5" y1="461.232" x2="363.5" y2="374.277" gradientUnits="userSpaceOnUse">
<stop stop-color="#FF45FF"/>
<stop offset="1" stop-color="#FF45FF" stop-opacity="0"/>
</linearGradient>
<radialGradient id="paint32_radial_221_1614" cx="0" cy="0" r="1" gradientUnits="userSpaceOnUse" gradientTransform="translate(363.5 386.176) scale(104.011)">
<stop stop-color="#F691FF"/>
<stop offset="0.0794672" stop-color="#F79AFF"/>
<stop offset="0.2118" stop-color="#F9B4FF"/>
<stop offset="0.3795" stop-color="#FCDDFF"/>
<stop offset="0.4995" stop-color="white"/>
<stop offset="0.5916" stop-color="#FCDEFF"/>
<stop offset="0.7062" stop-color="#FABDFF"/>
<stop offset="0.8154" stop-color="#F8A5FF"/>
<stop offset="0.9161" stop-color="#F696FF"/>
<stop offset="1" stop-color="#F691FF"/>
</radialGradient>
<radialGradient id="paint33_radial_221_1614" cx="0" cy="0" r="1" gradientUnits="userSpaceOnUse" gradientTransform="translate(363.5 351.151) scale(47.5359)">
<stop stop-color="#F691FF"/>
<stop offset="0.0794672" stop-color="#F79AFF"/>
<stop offset="0.2118" stop-color="#F9B4FF"/>
<stop offset="0.3795" stop-color="#FCDDFF"/>
<stop offset="0.4995" stop-color="white"/>
<stop offset="0.5916" stop-color="#FCDEFF"/>
<stop offset="0.7062" stop-color="#FABDFF"/>
<stop offset="0.8154" stop-color="#F8A5FF"/>
<stop offset="0.9161" stop-color="#F696FF"/>
<stop offset="1" stop-color="#F691FF"/>
</radialGradient>
<radialGradient id="paint34_radial_221_1614" cx="0" cy="0" r="1" gradientUnits="userSpaceOnUse" gradientTransform="translate(363.5 343.116) scale(29.6747)">
<stop stop-color="#F691FF"/>
<stop offset="0.0794672" stop-color="#F79AFF"/>
<stop offset="0.2118" stop-color="#F9B4FF"/>
<stop offset="0.3795" stop-color="#FCDDFF"/>
<stop offset="0.4995" stop-color="white"/>
<stop offset="0.5916" stop-color="#FCDEFF"/>
<stop offset="0.7062" stop-color="#FABDFF"/>
<stop offset="0.8154" stop-color="#F8A5FF"/>
<stop offset="0.9161" stop-color="#F696FF"/>
<stop offset="1" stop-color="#F691FF"/>
</radialGradient>
<linearGradient id="paint35_linear_221_1614" x1="369.152" y1="119.945" x2="369.152" y2="327.984" gradientUnits="userSpaceOnUse">
<stop offset="0.00753205" stop-color="#23E2FF" stop-opacity="0"/>
<stop offset="0.9981" stop-color="white"/>
</linearGradient>
<linearGradient id="paint36_linear_221_1614" x1="216.684" y1="340.957" x2="216.684" y2="174.65" gradientUnits="userSpaceOnUse">
<stop stop-color="#F7E7FD" stop-opacity="0"/>
<stop offset="0.9975" stop-color="#23E2FF"/>
</linearGradient>
<linearGradient id="paint37_linear_221_1614" x1="261.666" y1="228.457" x2="261.666" y2="131.39" gradientUnits="userSpaceOnUse">
<stop stop-color="#F7E7FD" stop-opacity="0"/>
<stop offset="1" stop-color="#EEB0FF"/>
</linearGradient>
<linearGradient id="paint38_linear_221_1614" x1="259.433" y1="391.502" x2="259.433" y2="290.412" gradientUnits="userSpaceOnUse">
<stop stop-color="#F7E7FD" stop-opacity="0"/>
<stop offset="0.9975" stop-color="#B752FF"/>
</linearGradient>
<linearGradient id="paint39_linear_221_1614" x1="510.316" y1="241.805" x2="510.316" y2="140.715" gradientUnits="userSpaceOnUse">
<stop stop-color="#F7E7FD" stop-opacity="0"/>
<stop offset="0.9975" stop-color="#23E2FF"/>
</linearGradient>
<linearGradient id="paint40_linear_221_1614" x1="310.804" y1="256.217" x2="310.804" y2="155.127" gradientUnits="userSpaceOnUse">
<stop stop-color="#F7E7FD" stop-opacity="0"/>
<stop offset="1" stop-color="#EEB0FF"/>
</linearGradient>
<linearGradient id="paint41_linear_221_1614" x1="359.001" y1="445.313" x2="359.001" y2="344.223" gradientUnits="userSpaceOnUse">
<stop stop-color="#F7E7FD" stop-opacity="0"/>
<stop offset="1" stop-color="#EEB0FF"/>
</linearGradient>
<linearGradient id="paint42_linear_221_1614" x1="420.224" y1="276.82" x2="420.224" y2="175.73" gradientUnits="userSpaceOnUse">
<stop stop-color="#F7E7FD" stop-opacity="0"/>
<stop offset="1" stop-color="#FF89FF"/>
</linearGradient>
<linearGradient id="paint43_linear_221_1614" x1="477.562" y1="394.768" x2="477.562" y2="293.678" gradientUnits="userSpaceOnUse">
<stop stop-color="#F7E7FD" stop-opacity="0"/>
<stop offset="1" stop-color="#FF89FF"/>
</linearGradient>
<linearGradient id="paint44_linear_221_1614" x1="458.545" y1="297.439" x2="458.545" y2="131.132" gradientUnits="userSpaceOnUse">
<stop stop-color="#F7E7FD" stop-opacity="0"/>
<stop offset="0.9975" stop-color="#B752FF"/>
</linearGradient>
</defs>
</svg>
