<svg width="67" height="67" viewBox="0 0 67 67" fill="none" xmlns="http://www.w3.org/2000/svg">
<g clip-path="url(#clip0_275_2912)">
<path d="M46.2961 7.52948C51.1149 11.4894 54.2198 17.0557 55.039 23.2028C55.1048 23.697 55.527 24.0562 56.0122 24.0562C56.0555 24.0562 56.0992 24.0534 56.1433 24.0475C56.6814 23.9757 57.0596 23.4814 56.9878 22.9432C56.1028 16.301 52.7489 10.2875 47.5444 6.0105C47.125 5.66605 46.5055 5.72647 46.1608 6.1459C45.816 6.56532 45.8766 7.18476 46.2961 7.52948Z" fill="white"/>
<path d="M15.2717 7.206C15.4802 7.206 15.6903 7.13994 15.8686 7.00349C20.1726 3.70799 25.3189 1.96606 30.751 1.96606C35.028 1.96606 39.2385 3.08488 42.9273 5.20167C43.3981 5.47193 43.999 5.30915 44.2692 4.83834C44.5395 4.36753 44.3768 3.76671 43.9059 3.49657C39.9196 1.20913 35.3708 0 30.751 0C24.883 0 19.3235 1.88191 14.6734 5.44231C14.2423 5.77248 14.1603 6.38943 14.4904 6.82052C14.684 7.07336 14.9761 7.206 15.2717 7.206Z" fill="white"/>
<path d="M54.6286 35.4618C54.1283 35.2514 53.5517 35.4854 53.3409 35.9857C49.5005 45.0925 40.6334 50.977 30.751 50.977C17.2386 50.977 6.24549 39.9838 6.24549 26.4714C6.24549 23.4982 6.77357 20.5902 7.81493 17.8283C8.00642 17.3203 7.74991 16.7532 7.24189 16.5617C6.73346 16.3698 6.16671 16.6267 5.97522 17.1346C4.84985 20.1192 4.2793 23.2604 4.2793 26.4714C4.2793 31.9241 5.93695 36.9966 8.7741 41.2126V54.984C8.7741 55.5867 9.08592 56.1261 9.6081 56.4269C9.86841 56.5769 10.1539 56.6518 10.4392 56.6518C10.7263 56.6518 11.0132 56.5759 11.2747 56.4243L15.2039 54.1454L19.133 56.4243C19.6543 56.7268 20.2774 56.7278 20.7997 56.4269C21.3219 56.1261 21.6337 55.5867 21.6337 54.9841V51.3246C22.0281 51.4697 22.4269 51.6055 22.8298 51.732L24.5314 57.9962H22.395C20.8555 57.9962 19.6032 59.2486 19.6032 60.788V64.2082C19.6032 65.7476 20.8555 67 22.395 67H39.1068C40.6463 67 41.8987 65.7476 41.8987 64.2082V60.788C41.8987 59.2486 40.6463 57.9962 39.1068 57.9962H36.9705L38.6705 51.7375C39.0954 51.6048 39.5163 51.462 39.9326 51.3085V54.984C39.9326 55.5866 40.2444 56.126 40.7666 56.4268C41.027 56.5769 41.3124 56.6518 41.5977 56.6518C41.8848 56.6518 42.1718 56.5759 42.4332 56.4243L46.3624 54.1454L50.2915 56.4243C50.8129 56.7267 51.4359 56.7275 51.9581 56.427C52.4802 56.1262 52.7921 55.5869 52.7921 54.9841V50.3646C52.7921 49.8216 52.3519 49.3816 51.809 49.3816C51.2661 49.3816 50.826 49.8216 50.826 50.3646V54.4616L47.2697 52.399C46.71 52.0746 46.0148 52.0744 45.455 52.3991L41.8987 54.4616V50.4918C45.3111 48.9107 48.3587 46.6134 50.826 43.742V46.1751C50.826 46.7181 51.2661 47.1581 51.809 47.1581C52.3519 47.1581 52.7921 46.7181 52.7921 46.1751V41.1462C53.7033 39.7753 54.496 38.3061 55.1524 36.7495C55.3634 36.2493 55.1289 35.6728 54.6286 35.4618ZM19.6676 54.4615L16.1112 52.3988C15.5515 52.0744 14.8563 52.0743 14.2965 52.399L10.7403 54.4615V43.7831C13.1913 46.6125 16.2318 48.9171 19.6676 50.5078V54.4615ZM39.9326 60.788V64.2082C39.9326 64.6635 39.5622 65.0339 39.1068 65.0339H22.395C21.9396 65.0339 21.5692 64.6635 21.5692 64.2082V60.788C21.5692 60.3327 21.9396 59.9623 22.395 59.9623H39.1068C39.5622 59.9623 39.9326 60.3328 39.9326 60.788ZM34.9332 57.9962H26.5686L25.0262 52.3177C26.8705 52.7259 28.7857 52.9431 30.751 52.9431C32.7046 52.9431 34.6211 52.7293 36.4747 52.3211L34.9332 57.9962Z" fill="white"/>
<path d="M10.038 26.4714C10.038 31.9818 12.1782 37.1687 16.0643 41.0764C16.4472 41.4617 17.0696 41.4632 17.4545 41.0804C17.8394 40.6975 17.8411 40.0751 17.4583 39.6901C13.941 36.1534 12.0039 31.4587 12.0039 26.4714C12.0039 16.1344 20.4138 7.72448 30.7509 7.72448C41.0881 7.72448 49.4979 16.1344 49.4979 26.4714C49.4979 36.8086 41.0881 45.2185 30.7509 45.2185C27.1212 45.2185 23.5994 44.179 20.5666 42.2124C20.111 41.9171 19.5022 42.0469 19.2069 42.5025C18.9116 42.9581 19.0413 43.5667 19.4968 43.8621C22.8491 46.0356 26.7405 47.1846 30.7508 47.1846C42.172 47.1846 51.4639 37.8926 51.4639 26.4714C51.4639 15.0501 42.172 5.75842 30.7508 5.75842C19.3298 5.75842 10.038 15.0501 10.038 26.4714Z" fill="white"/>
<path d="M25.4172 61.5151C24.8743 61.5151 24.4342 61.9551 24.4342 62.4981C24.4342 63.0411 24.8743 63.4811 25.4172 63.4811H36.3708C36.9137 63.4811 37.3538 63.0411 37.3538 62.4981C37.3538 61.9551 36.9137 61.5151 36.3708 61.5151H25.4172Z" fill="white"/>
<path d="M44.2946 25.534C45.0396 24.8079 45.3026 23.742 44.9811 22.7526C44.6596 21.7631 43.8203 21.0556 42.7909 20.906L36.6542 20.0142C36.4109 19.9788 36.2007 19.826 36.0918 19.6056L33.3474 14.0449C32.887 13.1119 31.9547 12.5325 30.9144 12.5325C29.8739 12.5325 28.9416 13.1119 28.4813 14.0449L25.7371 19.6056C25.6281 19.8262 25.4179 19.979 25.1744 20.0142L19.0379 20.906C18.0085 21.0556 17.1691 21.7631 16.8477 22.7526C16.5262 23.742 16.7893 24.8079 17.5343 25.5341L21.9746 29.8622C22.1507 30.0341 22.2311 30.2813 22.1895 30.5237L21.1412 36.6354C20.9653 37.6608 21.379 38.6776 22.2206 39.2892C22.6962 39.6347 23.2526 39.8103 23.8128 39.8103C24.244 39.8103 24.6775 39.7063 25.0779 39.4958L30.5665 36.6103C30.7842 36.4958 31.0444 36.4958 31.2621 36.6103L36.7507 39.4958C37.6717 39.9798 38.7665 39.9008 39.6081 39.2893C40.4497 38.6778 40.8634 37.6609 40.6875 36.6355L39.6392 30.5239C39.5976 30.2814 39.678 30.0342 39.854 29.8625L44.2946 25.534ZM38.4817 28.4545C37.8422 29.078 37.5505 29.9757 37.7015 30.856L38.7498 36.9677C38.8207 37.3809 38.5655 37.6165 38.4525 37.6985C38.3395 37.7808 38.0367 37.9507 37.6657 37.7554L32.177 34.8699C31.3863 34.4544 30.4424 34.4544 29.6518 34.8699L24.163 37.7554C23.7921 37.9508 23.4892 37.7808 23.3762 37.6985C23.2632 37.6165 23.008 37.3809 23.079 36.9677L24.1273 30.856C24.2783 29.9757 23.9865 29.078 23.3469 28.4544L18.9066 24.1263C18.6063 23.8336 18.6743 23.4931 18.7175 23.3602C18.7606 23.2273 18.9058 22.9119 19.3206 22.8517L25.457 21.9598C26.3409 21.8315 27.1047 21.2767 27.5001 20.4757L30.2445 14.9151C30.43 14.5392 30.7749 14.4985 30.9145 14.4985C31.0541 14.4985 31.3991 14.5392 31.5845 14.9151L34.3289 20.4757C34.7243 21.2767 35.4881 21.8317 36.3717 21.9598L42.5082 22.8517C42.9232 22.9119 43.0683 23.2273 43.1114 23.3602C43.1545 23.4931 43.2225 23.8335 42.9224 24.1262L38.4817 28.4545Z" fill="white"/>
<path d="M62.6019 28.843C61.4694 28.1739 60.5753 27.3219 59.9442 26.311C59.5819 25.7306 58.9584 25.3984 58.2735 25.4252C57.5865 25.4509 56.9854 25.8298 56.6657 26.4389C56.1201 27.4788 55.3251 28.2693 54.2357 28.8556C53.6294 29.1816 53.2507 29.8133 53.2469 30.5041C53.2432 31.1978 53.6171 31.8364 54.2228 32.1709C55.2809 32.7549 56.0713 33.5584 56.6391 34.6269C56.9638 35.2379 57.5698 35.6119 58.2604 35.6274C58.2746 35.6276 58.2886 35.6277 58.3028 35.6277C58.9745 35.6277 59.6008 35.2704 59.9446 34.688C60.6027 33.5731 61.4594 32.73 62.5636 32.1111C63.1572 31.7785 63.5164 31.1715 63.5242 30.4873C63.5321 29.8038 63.1874 29.1889 62.6019 28.843ZM58.312 33.5875C57.595 32.2874 56.5805 31.2555 55.2937 30.5176C56.6197 29.7758 57.6461 28.7493 58.3472 27.4636C59.1186 28.6595 60.1725 29.6681 61.4828 30.4644C60.1754 31.2231 59.1095 32.2729 58.312 33.5875Z" fill="white"/>
<path d="M6.86772 13.8164C7.19238 14.4275 7.79845 14.8014 8.48906 14.8169C8.50322 14.8172 8.51724 14.8173 8.5314 14.8173C9.20314 14.8173 9.82939 14.46 10.1732 13.8774C10.8312 12.7626 11.688 11.9196 12.7925 11.3005C13.3861 10.9678 13.7453 10.3606 13.753 9.67644C13.7607 8.99278 13.4159 8.37832 12.8306 8.03243C11.6982 7.36331 10.804 6.51135 10.1729 5.50027C9.81065 4.92015 9.18544 4.58933 8.5023 4.6145C7.81523 4.64019 7.21414 5.01924 6.89446 5.62833C6.34881 6.66811 5.55387 7.4586 4.46428 8.04501C3.85808 8.37124 3.47928 9.003 3.47561 9.69375C3.47194 10.3874 3.84589 11.0261 4.45156 11.3604C5.5097 11.9446 6.30005 12.748 6.86772 13.8164ZM8.57596 6.65304C9.34718 7.84906 10.4011 8.85751 11.7114 9.6539C10.4039 10.4127 9.33814 11.4624 8.54057 12.7771C7.82362 11.477 6.80913 10.445 5.52215 9.70711C6.84858 8.96512 7.87487 7.93871 8.57596 6.65304Z" fill="white"/>
</g>
<defs>
<clipPath id="clip0_275_2912">
<rect width="67" height="67" fill="white"/>
</clipPath>
</defs>
</svg>
