<svg width="58" height="58" viewBox="0 0 58 58" fill="none" xmlns="http://www.w3.org/2000/svg">
<path d="M17.4055 38.2746L8.07339 47.6067C3.68887 42.678 1 36.1002 1 29C1 21.8999 3.68887 15.322 8.07339 10.3934L17.4055 19.7255C15.3847 22.2517 14.125 25.5205 14.125 29C14.125 32.4796 15.3847 35.7484 17.4055 38.2746Z" fill="white" stroke="white" stroke-width="1.5"/>
<path d="M49.9266 47.6067L40.5945 38.2746C42.6153 35.7484 43.875 32.4796 43.875 29C43.875 25.5205 42.6153 22.2517 40.5945 19.7255L49.9266 10.3934C54.3111 15.322 57 21.8999 57 29C57 36.1002 54.3111 42.678 49.9266 47.6067Z" fill="white" stroke="white" stroke-width="1.5"/>
<path d="M38.2745 17.4055C35.7483 15.3847 32.4795 14.125 29 14.125C25.5204 14.125 22.2516 15.3847 19.7254 17.4055L10.3933 8.07342C15.322 3.68891 21.8998 1.00003 29 1.00003C36.1001 1.00003 42.678 3.68891 47.6066 8.07342L38.2745 17.4055Z" fill="white" stroke="white" stroke-width="1.5"/>
<path d="M29 57C21.8998 57 15.322 54.3111 10.3933 49.9266L19.7254 40.5945C22.2516 42.6153 25.5204 43.875 29 43.875C32.4795 43.875 35.7483 42.6153 38.2745 40.5945L47.6066 49.9266C42.678 54.3111 36.1001 57 29 57Z" fill="white" stroke="white" stroke-width="1.5"/>
</svg>
