<svg width="56" height="56" viewBox="0 0 56 56" fill="none" xmlns="http://www.w3.org/2000/svg">
<g clip-path="url(#clip0_275_2893)">
<path d="M30.9426 23.7273C31.7369 23.7273 32.383 24.2684 32.383 24.9334C32.383 25.5374 32.8728 26.0272 33.4768 26.0272C34.0808 26.0272 34.5706 25.5374 34.5706 24.9334C34.5706 23.4186 33.5039 22.1327 32.0364 21.6977V21.5456C32.0364 20.9416 31.5466 20.4518 30.9426 20.4518C30.3386 20.4518 29.8488 20.9416 29.8488 21.5456V21.6977C28.3813 22.1328 27.3148 23.4186 27.3148 24.9334C27.3148 26.8047 28.9422 28.327 30.9426 28.327C31.7369 28.327 32.383 28.8681 32.383 29.5331C32.383 30.1981 31.7369 30.7391 30.9426 30.7391C30.1484 30.7391 29.5023 30.1981 29.5023 29.5331C29.5023 28.9291 29.0125 28.4393 28.4085 28.4393C27.8046 28.4393 27.3148 28.9291 27.3148 29.5331C27.3148 31.0479 28.3813 32.3338 29.8488 32.7688V32.9208C29.8488 33.5248 30.3386 34.0146 30.9426 34.0146C31.5466 34.0146 32.0364 33.5248 32.0364 32.9208V32.7688C33.5039 32.3338 34.5706 31.0479 34.5706 29.5331C34.5706 27.6619 32.943 26.1394 30.9426 26.1394C30.1484 26.1394 29.5023 25.5984 29.5023 24.9334C29.5023 24.2684 30.1484 23.7273 30.9426 23.7273Z" fill="white"/>
<path d="M55.8354 36.5376C55.4065 35.0505 54.1996 33.9268 52.6858 33.6048C51.7164 33.3984 50.7082 33.5491 49.8471 34.0067C50.3457 30.9064 50.0838 27.6993 49.058 24.7098C48.8618 24.1384 48.2396 23.8347 47.6683 24.0303C47.0969 24.2264 46.7927 24.8485 46.9887 25.4199C48.2004 28.9503 48.2103 32.8232 47.0232 36.3579L38.3067 44.0994C37.7689 44.5769 37.1791 44.9819 36.5523 45.3106C36.7295 44.5937 36.7174 43.8345 36.5046 43.1132C36.1685 41.9742 35.3613 41.0267 34.2903 40.5137L26.5686 36.8153C23.1928 35.1984 19.2416 35.0113 15.7281 36.3012L14.9432 36.5895C12.7646 30.435 14.281 23.6097 18.9465 18.9444L26.6684 11.2226H35.2171L41.7598 17.7653C42.187 18.1923 42.8794 18.1923 43.3067 17.7653C43.7338 17.3382 43.7338 16.6456 43.3067 16.2183L37.0553 9.96724L39.3152 3.4638C39.6181 2.59194 39.2836 1.64079 38.5015 1.15055C37.7197 0.660426 36.7175 0.774071 36.0649 1.4264L36.0514 1.43986C35.5994 1.89214 34.8635 1.89214 34.4114 1.43986C32.4917 -0.479627 29.3684 -0.479627 27.4487 1.43986C27.2297 1.65894 26.9384 1.77948 26.6287 1.77948C26.3189 1.77948 26.0276 1.65883 25.8087 1.43986C25.1553 0.78654 24.1527 0.673442 23.3702 1.1651C22.5878 1.65665 22.2545 2.60912 22.5598 3.4813L24.8295 9.96789L17.3996 17.3977C14.65 20.1474 12.8221 23.6143 12.114 27.4234C11.4929 30.7638 11.7619 34.17 12.888 37.3443L11.1636 37.9774C10.5898 37.2314 9.68909 36.7493 8.67744 36.7493H3.13556C1.40661 36.7494 0 38.156 0 39.8848V52.8643C0 54.5933 1.40661 55.9999 3.13556 55.9999H31.9638C36.4919 55.9999 40.7739 54.2619 44.0211 51.106L54.7313 40.6969C55.8412 39.6185 56.2642 38.0247 55.8354 36.5376ZM26.6286 3.96716C27.5226 3.96716 28.3632 3.61901 28.9955 2.9868C30.0622 1.92014 31.7978 1.92014 32.8645 2.9868C33.4967 3.61901 34.3373 3.96716 35.2314 3.96716C35.8662 3.96716 36.4739 3.79172 36.9994 3.46358L35.0634 9.03511H26.8207L24.874 3.47189C25.3964 3.79456 25.9991 3.96716 26.6286 3.96716ZM2.18757 52.8644V39.8848C2.18757 39.3621 2.61284 38.9368 3.13556 38.9368H8.67734C9.20006 38.9368 9.62532 39.3621 9.62532 39.8848V52.8643C9.62532 53.3871 9.20006 53.8123 8.67734 53.8123H3.13556C2.61284 53.8124 2.18757 53.3872 2.18757 52.8644ZM53.2067 39.1283L42.4964 49.5374C39.6598 52.2941 35.9193 53.8124 31.9638 53.8124H11.666C11.7612 53.5132 11.8129 53.1948 11.8129 52.8644V40.0694L16.482 38.355C19.4448 37.2673 22.777 37.425 25.6237 38.7885L33.3454 42.4869C33.8661 42.7363 34.243 43.1787 34.4064 43.7326C34.5698 44.2865 34.4935 44.8629 34.1915 45.3551C33.7063 46.1458 32.7498 46.5015 31.8658 46.2207L21.6076 42.9586C21.0321 42.7757 20.4169 43.0938 20.2337 43.6695C20.0507 44.2452 20.3689 44.8603 20.9447 45.0434L31.2029 48.3054C31.6254 48.4398 32.0556 48.5043 32.4803 48.5043C32.5315 48.5043 32.5825 48.5012 32.6334 48.4994C35.2641 48.4615 37.7891 47.485 39.7591 45.7353L50.4899 36.2047C50.9621 35.7854 51.613 35.6135 52.2305 35.7447C52.9636 35.9007 53.5254 36.4237 53.7331 37.144C53.9412 37.864 53.7443 38.6058 53.2067 39.1283Z" fill="white"/>
<path d="M45.801 21.7652C46.0887 21.7652 46.3709 21.6493 46.5742 21.4447C46.7776 21.2413 46.8948 20.9601 46.8948 20.6714C46.8948 20.3838 46.7777 20.1027 46.5742 19.8982C46.3709 19.6948 46.0887 19.5777 45.801 19.5777C45.5133 19.5777 45.2323 19.6947 45.0277 19.8982C44.8243 20.1027 44.7073 20.3838 44.7073 20.6714C44.7073 20.9602 44.8242 21.2413 45.0277 21.4447C45.2311 21.6494 45.5133 21.7652 45.801 21.7652Z" fill="white"/>
</g>
<defs>
<clipPath id="clip0_275_2893">
<rect width="56" height="56" fill="white"/>
</clipPath>
</defs>
</svg>
