<svg width="20" height="20" viewBox="0 0 20 20" fill="none" xmlns="http://www.w3.org/2000/svg">
<path d="M19.7518 11.8694L18.2045 10.4992C18.2045 10.4145 18.1891 9.38302 18.1814 9.30604C18.1814 9.30604 19.7056 7.88967 19.7133 7.88197C19.898 7.63565 20.0212 7.35853 19.9057 7.05832C19.8056 6.70423 19.6825 6.34244 19.5054 5.93446C19.3438 5.55728 19.1513 5.18009 18.9358 4.81061C18.7973 4.57198 18.5047 4.41033 18.2199 4.42572C17.5271 4.47191 16.8344 4.5181 16.1416 4.56428C16.0954 4.5027 15.3564 3.77912 15.2948 3.72524C15.3179 3.03245 15.341 2.34736 15.3641 1.65457C15.3718 1.37745 15.2101 1.08494 14.9715 0.954079C14.2248 0.530708 13.4397 0.222801 12.6314 0.0226622C12.3466 -0.0466167 12.0541 0.0457552 11.8694 0.26129L10.4992 1.80852C10.0989 1.78543 9.69862 1.79312 9.30604 1.83161L7.88967 0.307476C7.69723 0.0996389 7.40472 0.0149645 7.1276 0.0842434C6.31935 0.307476 5.51879 0.646173 4.79521 1.07724C4.54889 1.23119 4.41033 1.50061 4.42572 1.78543L4.56428 3.86379C4.25637 4.13321 3.97926 4.41803 3.72524 4.71824L1.64687 4.64896C1.36975 4.63356 1.09264 4.78751 0.954079 5.04154C0.530708 5.78821 0.222801 6.57337 0.0226622 7.38163C-0.0466167 7.65874 0.0457552 7.95125 0.26129 8.14369L1.80852 9.51388C1.78543 9.91416 1.79312 10.3067 1.83161 10.707L0.307476 12.1234C0.0996389 12.3158 0.0149645 12.6083 0.0842434 12.8855C0.299778 13.6937 0.65387 14.4789 1.06954 15.2024C1.2158 15.4565 1.48522 15.6027 1.78543 15.5873L3.86379 15.4488C4.13321 15.7567 4.41803 16.0338 4.71824 16.2878L4.64896 18.3662C4.64126 18.651 4.78751 18.9204 5.04154 19.059C5.75742 19.467 6.51179 19.7595 7.31235 19.9673C7.59716 20.0443 7.93586 19.9904 8.14369 19.7518L9.51388 18.2045C9.90646 18.2199 10.3144 18.2199 10.707 18.1814C10.707 18.1814 12.1234 19.7056 12.1388 19.721C12.3543 19.9442 12.6622 19.9827 12.9701 19.898C13.7476 19.6825 14.502 19.3438 15.2024 18.9358C15.4411 18.805 15.6027 18.497 15.5873 18.2199C15.5411 17.5271 15.495 16.8344 15.4488 16.1416C15.6181 15.9953 15.7721 15.8414 15.926 15.6797C15.9722 15.6258 16.2108 15.2948 16.2878 15.2948C16.9806 15.3179 17.6657 15.341 18.3585 15.3641C18.6279 15.3795 18.9204 15.2101 19.059 14.9715C19.467 14.2479 19.7672 13.4859 19.9673 12.7007C20.0443 12.4082 19.9904 12.0772 19.7518 11.8694ZM10.0065 13.8554C7.88197 13.8554 6.1577 12.1311 6.1577 10.0065C6.1577 7.88197 7.88197 6.1577 10.0065 6.1577C12.1311 6.1577 13.8554 7.88197 13.8554 10.0065C13.8554 12.1311 12.1311 13.8554 10.0065 13.8554Z" fill="#E5E5E5"/>
</svg>
